PathFileType	4	(X/Y/Z)	..\data\2015026\dynamic\2015026_C4_04.trc
DataRate	CameraRate	NumFrames	NumMarkers	Units	OrigDataRate	OrigDataStartFrame	OrigNumFrames
100.000000	100.000000	4	48	mm	100.000000	40	160
Frame#	Time	L_IAS			L_IPS			R_IPS			R_IAS			L_FTC			L_FLE			L_FAX			L_TTC			L_FAL			L_FCC			L_FM1			L_FM2			L_FM5			R_FTC			R_FLE			R_FAX			R_TTC			R_FAL			R_FCC			R_FM1			R_FM2			R_FM5			CV7			TV10			SXS			SJN			L_SIA			L_SRS			L_SAA			L_SAE			L_HLE			L_HME			L_UOA			L_RSP			L_UHE			L_HM2			L_HM5			R_SIA			R_SRS			R_SAA			R_SAE			R_HLE			R_HME			R_UOA			R_RSP			R_UHE			R_HM2			R_HM5			
		X1	Y1	Z1	X2	Y2	Z2	X3	Y3	Z3	X4	Y4	Z4	X5	Y5	Z5	X6	Y6	Z6	X7	Y7	Z7	X8	Y8	Z8	X9	Y9	Z9	X10	Y10	Z10	X11	Y11	Z11	X12	Y12	Z12	X13	Y13	Z13	X14	Y14	Z14	X15	Y15	Z15	X16	Y16	Z16	X17	Y17	Z17	X18	Y18	Z18	X19	Y19	Z19	X20	Y20	Z20	X21	Y21	Z21	X22	Y22	Z22	X23	Y23	Z23	X24	Y24	Z24	X25	Y25	Z25	X26	Y26	Z26	X27	Y27	Z27	X28	Y28	Z28	X29	Y29	Z29	X30	Y30	Z30	X31	Y31	Z31	X32	Y32	Z32	X33	Y33	Z33	X34	Y34	Z34	X35	Y35	Z35	X36	Y36	Z36	X37	Y37	Z37	X38	Y38	Z38	X39	Y39	Z39	X40	Y40	Z40	X41	Y41	Z41	X42	Y42	Z42	X43	Y43	Z43	X44	Y44	Z44	X45	Y45	Z45	X46	Y46	Z46	X47	Y47	Z47	X48	Y48	Z48	

41	0.4	326.3790283203126	952.6975708007815	-371.7194824218751	130.3077697753907	949.5886230468752	-325.9053039550782	127.2199478149414	952.2813720703127	-213.2611541748047	312.2051696777344	945.095153808594	-148.3543853759766	253.9410400390626	868.9351196289065	-442.0737609863282	211.9622192382813	453.760223388672	-374.3143005371094	181.3015441894532	405.2645874023439	-382.9085083007813	231.4612426757813	389.6239013671876	-319.0635375976563	129.3022766113282	66.36201477050783	-362.1960449218751	77.91844940185548	20.05599784851075	-334.8388366699219	260.1513671875001	15.73265361785889	-269.0413818359376	277.1646118164063	31.93082237243653	-322.8456726074219	237.2084655761719	16.50032043457032	-383.3455810546876	226.8824310302735	855.4079589843752	-91.6781463623047	415.5115051269532	490.8302001953126	-132.4823608398438	389.349090576172	432.6587829589845	-138.2378234863282	459.4612121582032	420.2570800781251	-165.873275756836	357.5932617187501	86.27770996093751	-163.6274871826172	330.6760864257813	44.85775756835938	-219.6445617675782	522.0231933593751	47.85086059570313	-190.3423309326172	503.7273254394532	52.73780822753908	-142.4520721435547	454.4286193847657	32.62712860107423	-112.8888015747071	178.1597137451172	1438.9677734375	-265.2601318359376	101.5986633300782	1200.89599609375	-290.1689453125001	322.9448852539063	1136.807373046875	-266.9417419433594	296.1836853027344	1350.647094726563	-267.0526123046876	109.2210083007813	1240.582275390625	-368.9427490234376	138.1105194091797	1371.2001953125	-360.3418884277344	191.1532592773438	1382.341064453125	-436.8929138183595	233.7231140136719	1381.245483398438	-450.363739013672	277.3846130371094	1076.355346679688	-527.3457641601564	228.2661743164063	1055.23095703125	-465.0337829589845	239.4619598388672	1052.34375	-511.9291992187501	395.8479309082032	862.6170043945315	-464.5110168457032	344.5097656250001	852.5278320312502	-522.1127929687501	436.1399230957032	789.820983886719	-468.1774291992189	355.0349121093751	778.2883911132815	-524.2946777343751	91.12488555908205	1235.837158203125	-207.0786437988282	124.6661758422852	1366.69775390625	-229.5249176025391	159.9392852783203	1376.788940429688	-119.4094543457032	208.8388214111329	1370.908203125	-89.35200500488283	135.8071746826172	1061.77587890625	-57.58411026000978	132.1298522949219	1051.308471679688	-136.12255859375	111.1898345947266	1043.146362304688	-94.75076293945314	212.6820983886719	820.160827636719	-38.65895462036134	134.0282135009766	818.521667480469	-54.497127532959	218.7983703613282	733.0252075195314	-28.35835647583009	123.1895980834961	746.3215332031251	-57.29998779296876	
42	0.41	338.6155090332032	950.4895629882815	-371.2934875488282	142.6201477050782	947.7098388671877	-324.4515380859376	140.0575714111328	950.2900390625002	-211.8621673583985	325.3388366699219	943.0452880859377	-147.9666900634766	264.5837402343751	867.252868652344	-441.2316894531251	216.6636047363282	453.0301513671876	-374.3781738281251	185.4749298095703	404.9695739746095	-382.9315795898438	235.5567016601563	388.4797668457032	-319.2606506347657	129.6018981933594	66.41870117187501	-362.1424255371094	78.02182769775392	20.35202026367188	-334.7745056152344	260.0541076660157	15.72755718231202	-269.0358886718751	277.1318664550782	31.85386848449708	-322.9245910644532	237.1029968261719	16.45421409606934	-383.3888549804688	240.0965728759766	853.425476074219	-90.90974426269533	428.4939880371095	488.9068603515626	-132.6740264892578	404.9463806152345	429.3306884765626	-137.7220916748047	475.5919799804689	420.3802795410157	-165.546127319336	396.4637145996095	81.62585449218751	-159.9886016845703	372.2268676757813	38.27518463134766	-215.7517547607422	562.9953002929689	52.58288574218751	-186.8119201660157	544.4372558593751	56.48533248901369	-138.8533782958985	496.4362792968751	33.82941818237305	-109.3021850585938	190.4836120605469	1437.0185546875	-264.8417663574219	114.0015563964844	1198.89892578125	-289.7216796875001	335.3027343750001	1134.727783203125	-266.0526123046876	308.5779418945313	1348.60205078125	-266.2275390625001	121.7917175292969	1238.669677734375	-368.6100769042969	150.7886047363282	1369.291137695313	-360.0206909179688	204.1309814453126	1380.370727539063	-436.4114074707032	246.7883605957032	1379.290649414063	-449.639862060547	293.0696105957032	1075.019897460938	-527.3618774414064	243.4741821289063	1053.331787109375	-465.6793212890626	255.2295532226563	1050.546997070313	-512.4873046875001	413.6617736816407	862.9866333007815	-463.3788452148439	362.9670410156251	852.0103149414065	-521.4739990234376	455.0920715332032	790.8209228515627	-466.6395263671876	374.6809997558594	777.916931152344	-523.4826049804689	103.3610153198242	1233.814208984375	-206.9190826416016	136.9075927734375	1364.755004882813	-229.3129119873047	171.7452850341797	1374.809448242188	-119.1190338134766	220.4246215820313	1368.892211914063	-88.79705810546876	145.8994903564453	1060.050903320313	-57.63442993164064	142.7791900634766	1049.4609375	-136.1322326660157	121.4289016723633	1041.504760742188	-94.9085159301758	221.7625732421876	818.1760864257815	-38.19535446166993	143.2406768798828	816.7828369140627	-54.62639236450197	227.5404205322266	731.0299682617189	-27.88642883300782	132.2020111083985	744.6004638671876	-57.54833221435548	
43	0.42	350.7164306640626	948.0888671875002	-370.8689270019532	154.9418182373047	945.6094970703127	-322.8486328125001	152.972412109375	948.065368652344	-210.3102416992188	338.6184387207032	940.8286743164065	-147.5919494628907	275.2872009277344	865.4085693359377	-440.3229980468751	221.8996276855469	452.1419372558595	-374.3162841796876	190.1436157226563	404.5409240722657	-382.8143310546876	240.1664428710938	387.1724853515626	-319.3979187011719	129.9515533447266	66.48553466796876	-362.0588378906251	78.1428680419922	20.68572998046875	-334.6902770996094	259.9526672363282	15.73764801025391	-269.0148010253907	277.0859680175782	31.77753829956055	-322.9934997558594	236.9933624267579	16.41863059997559	-383.4154052734376	253.4250946044922	851.1482543945315	-90.10937500000001	441.115936279297	486.5829467773439	-132.8704376220703	420.2810363769532	425.7928771972657	-137.0857391357422	491.1676635742189	420.1810302734376	-165.3839721679688	434.7077941894532	78.08950042724611	-156.1503601074219	412.9633178710939	32.9094352722168	-211.4808654785157	602.6491699218751	58.35300445556642	-183.9303131103516	584.1676635742189	61.34732818603517	-135.8169860839844	537.7534179687501	36.24513626098634	-106.0363540649414	202.786361694336	1434.85791015625	-264.3661804199219	126.3876724243164	1196.679931640625	-289.1322937011719	347.6788940429688	1132.418823242188	-265.1040954589844	320.9916381835938	1346.324951171875	-265.3807678222657	134.2999877929688	1236.548461914063	-368.1677551269532	163.4396057128907	1367.17333984375	-359.6153259277344	217.0468292236329	1378.166381835938	-435.8821411132814	259.8169555664063	1377.080078125	-448.8598937988282	308.6446228027344	1073.43310546875	-527.2565917968751	258.5770874023438	1051.221923828125	-466.1719970703126	270.8381347656251	1048.545532226563	-512.8886718750001	431.255096435547	863.1050415039065	-462.1316223144532	381.2106628417969	851.2626953125002	-520.6931152343751	473.7809143066407	791.5626220703127	-464.9764404296876	394.085906982422	777.3338012695315	-522.5501098632814	115.6416091918946	1231.565795898438	-206.6441040039063	149.1880187988282	1362.588745117188	-229.0054016113282	183.6381378173828	1372.605346679688	-118.7500686645508	232.1206817626954	1366.656982421875	-88.19393920898439	156.2090301513672	1058.092041015625	-57.5650978088379	153.6237182617188	1047.371459960938	-136.0127410888672	131.8529205322266	1039.64892578125	-94.92392730712892	231.0491790771485	815.954772949219	-37.65301513671876	152.6507110595703	814.8211059570315	-54.61030960083009	236.4531555175782	728.7788696289064	-27.35862159729005	141.379150390625	742.6626586914064	-57.62984085083009	
44	0.43	362.6927490234376	945.5239257812502	-370.4570922851563	167.2678833007813	943.3132324218752	-321.1004638671876	165.9586944580078	945.6419677734377	-208.6068115234376	352.0312805175782	938.4746093750002	-147.2330017089844	286.0700988769532	863.4109497070315	-439.3494262695314	227.7121124267579	451.0833435058595	-374.0931396484376	195.3427429199219	403.9685058593751	-382.5256652832032	245.298568725586	385.689910888672	-319.4270324707032	130.3516998291016	66.58496093750001	-361.9310913085938	78.27328491210939	21.08421325683594	-334.5791320800782	259.8753356933594	15.76604843139649	-268.9789428710938	277.0515747070313	31.71034049987794	-323.0501098632813	236.8948059082032	16.40003395080567	-383.4207458496094	266.8890075683594	848.6185302734377	-89.25615692138673	453.5253906250001	483.9598999023439	-133.052963256836	435.4409179687501	422.1575317382814	-136.3252410888672	506.2789916992189	419.6977844238282	-165.4026794433594	471.9338684082032	75.60476684570314	-152.1751861572266	452.431365966797	28.68031311035157	-206.8907012939454	640.6137084960939	64.92850494384767	-181.7943267822266	622.5455932617189	67.12039184570314	-133.445541381836	577.9804077148439	39.71210861206055	-103.1799468994141	215.0793609619141	1432.516479492188	-263.8218994140626	138.7608489990235	1194.274780273438	-288.3914184570313	360.0760192871094	1129.916748046875	-264.1104431152344	333.4320678710938	1343.847290039063	-264.5133972167969	146.7425994873047	1234.252685546875	-367.6026000976563	176.0616607666016	1364.879638671875	-359.1116027832032	229.8802642822266	1375.761962890625	-435.3000488281251	272.7941589355469	1374.647827148438	-448.021453857422	324.0779418945313	1071.622436523438	-527.0185546875001	273.5667419433594	1048.930419921875	-466.4827880859376	286.2706604003907	1046.3671875	-513.1094360351564	448.6151733398439	862.989196777344	-460.7837524414064	399.2122192382814	850.3050537109377	-519.7687377929689	492.1844482421876	792.0567626953127	-463.2072753906251	413.2100524902345	776.5598144531252	-521.4947509765626	127.9644317626953	1229.127197265625	-206.2499542236329	161.5165252685547	1360.229736328125	-228.5933837890626	195.630111694336	1370.203369140625	-118.2944259643555	243.942611694336	1364.228149414063	-87.53604125976564	166.7580871582032	1055.921630859375	-57.36498260498048	164.6705780029297	1045.064208984375	-135.7549133300782	142.4787139892578	1037.604614257813	-94.78700256347658	240.5462036132813	813.5132446289065	-37.03172683715821	162.2605285644532	812.6616210937502	-54.44643402099611	245.5383605957032	726.2943115234376	-26.76813507080079	150.719955444336	740.5329589843751	-57.54221343994142	
